<?xml version="1.0" standalone="no"?>
<!DOCTYPE svg PUBLIC "-//W3C//DTD SVG 20010904//EN"
 "http://www.w3.org/TR/2001/REC-SVG-20010904/DTD/svg10.dtd">
<svg version="1.0" xmlns="http://www.w3.org/2000/svg"
 width="450.000000pt" height="271.000000pt" viewBox="0 0 450.000000 271.000000"
 preserveAspectRatio="xMidYMid meet">

<g transform="translate(0.000000,271.000000) scale(0.100000,-0.100000)"
fill="#000000" stroke="none">
<path d="M183 2493 c-10 -3 -13 -40 -13 -134 l0 -129 39 0 40 0 3 53 3 52 45
0 45 0 3 -52 3 -53 40 0 40 0 -3 133 -3 132 -35 0 c-34 0 -35 -1 -40 -45 l-5
-45 -45 0 -45 0 -3 40 c-4 50 -27 66 -69 48z"/>
<path d="M978 2492 c-16 -3 -18 -18 -18 -133 l0 -129 35 0 35 0 0 53 c0 59 18
94 44 84 12 -5 16 -20 16 -72 l0 -65 35 0 35 0 0 78 c0 103 -10 117 -79 109
l-51 -6 0 42 c0 44 -6 48 -52 39z"/>
<path d="M1353 2493 c-10 -4 -13 -39 -13 -134 l0 -129 39 0 40 0 3 53 3 52 45
0 45 0 3 -52 3 -53 40 0 40 0 -3 133 -3 132 -35 0 c-34 0 -35 -1 -40 -45 l-5
-45 -45 0 -45 0 -3 43 c-2 23 -6 43 -10 43 -24 5 -49 5 -59 2z"/>
<path d="M2773 2494 c-10 -4 -13 -41 -13 -135 l0 -129 39 0 40 0 3 53 3 52 45
0 45 0 3 -52 3 -53 40 0 39 0 0 130 0 130 -25 6 c-40 10 -54 -1 -57 -48 l-3
-43 -45 0 -45 0 -5 45 c-4 39 -8 45 -30 47 -14 1 -31 -1 -37 -3z"/>
<path d="M3665 2492 c-3 -3 -5 -14 -5 -24 0 -14 8 -18 35 -18 28 0 35 4 35 20
0 11 -3 21 -7 21 -29 5 -53 5 -58 1z"/>
<path d="M535 2422 c-21 -4 -55 -30 -55 -42 0 -16 51 -20 78 -7 30 16 52 12
52 -7 0 -7 -25 -19 -56 -26 -71 -17 -95 -47 -70 -85 13 -20 25 -25 57 -25 22
0 49 5 60 10 13 7 19 7 19 0 0 -5 15 -10 33 -10 l34 0 -5 78 c-3 53 -9 82 -21
94 -16 16 -87 28 -126 20z m75 -122 c0 -26 -36 -46 -56 -30 -16 15 -10 28 20
40 32 13 36 12 36 -10z"/>
<path d="M795 2422 c-38 -5 -65 -29 -65 -57 0 -30 19 -44 77 -58 49 -12 58
-24 30 -41 -12 -7 -21 -5 -36 8 -23 21 -71 15 -71 -9 0 -22 34 -35 94 -35 63
0 96 22 96 65 0 29 -29 50 -82 59 -21 4 -40 11 -43 16 -10 16 26 24 46 12 22
-14 56 -16 63 -4 15 25 -48 51 -109 44z"/>
<path d="M1710 2417 c-44 -15 -77 -70 -66 -111 12 -50 49 -76 106 -76 44 0 56
5 81 29 39 40 40 89 2 130 -33 34 -74 44 -123 28z m71 -61 c24 -52 -15 -104
-52 -70 -23 21 -24 52 -2 76 22 25 41 23 54 -6z"/>
<path d="M2206 2419 c-41 -7 -56 -21 -56 -55 0 -28 20 -43 75 -57 48 -13 58
-25 32 -41 -12 -7 -21 -5 -36 8 -23 21 -71 15 -71 -9 0 -22 34 -35 94 -35 63
0 96 22 96 65 0 29 -29 50 -82 59 -21 4 -40 11 -43 16 -10 17 25 23 51 10 16
-9 30 -10 44 -4 48 22 -31 56 -104 43z"/>
<path d="M2444 2423 c-69 -13 -95 -122 -41 -169 34 -29 119 -34 155 -8 38 26
26 36 -40 32 -53 -3 -63 0 -66 15 -3 15 5 17 67 17 71 0 71 0 71 28 0 40 -25
70 -68 82 -38 10 -42 10 -78 3z m61 -46 c24 -18 11 -37 -26 -37 -30 0 -38 17
-17 38 15 15 20 15 43 -1z"/>
<path d="M3134 2422 c-18 -2 -40 -12 -49 -22 -17 -18 -16 -20 9 -31 23 -11 32
-10 57 5 30 18 49 15 49 -8 0 -7 -23 -18 -52 -25 -81 -18 -110 -58 -70 -94 13
-12 39 -15 107 -15 l90 0 -3 77 c-3 54 -9 81 -20 92 -18 18 -68 27 -118 21z
m66 -122 c0 -21 -34 -45 -50 -35 -18 11 -11 35 13 45 33 13 37 12 37 -10z"/>
<path d="M1900 2347 c0 -91 15 -117 69 -117 20 0 43 6 50 13 11 10 14 10 18 0
3 -7 18 -13 34 -13 l29 0 1 75 c1 41 2 83 3 93 1 13 -8 18 -36 20 l-38 3 0
-58 c0 -70 -11 -93 -37 -77 -13 8 -19 27 -21 73 l-3 61 -34 0 -35 0 0 -73z"/>
<path d="M3320 2324 l0 -94 35 0 c33 0 35 2 35 33 0 57 19 107 40 107 16 0 40
26 40 43 0 3 -34 5 -75 5 l-75 1 0 -95z"/>
<path d="M3490 2325 l0 -95 35 0 c35 0 35 0 35 44 0 60 14 94 41 98 12 2 26
13 30 26 7 19 5 22 -19 22 -16 0 -33 -5 -40 -12 -9 -9 -12 -9 -12 0 0 7 -14
12 -35 12 l-35 0 0 -95z"/>
<path d="M3660 2325 l0 -95 35 0 35 0 0 95 0 95 -35 0 -35 0 0 -95z"/>
<path d="M3813 2405 c-34 -24 -47 -76 -29 -118 8 -20 23 -40 34 -46 31 -16
114 -13 140 5 38 26 26 36 -40 32 -53 -3 -63 0 -66 15 -3 15 5 17 66 17 38 0
71 3 74 6 11 10 -11 69 -33 87 -27 22 -116 23 -146 2z m107 -50 c0 -10 -11
-15 -35 -15 -38 0 -48 22 -18 39 21 11 53 -3 53 -24z"/>
<path d="M4036 2412 c-5 -10 -5 -144 1 -164 3 -13 14 -18 39 -18 l34 0 0 54
c0 66 7 86 29 86 20 0 41 19 41 36 0 13 -137 18 -144 6z"/>
<path d="M4213 2405 c-21 -23 -15 -63 10 -79 12 -8 39 -18 60 -21 22 -4 37
-13 37 -21 0 -23 -29 -28 -50 -9 -13 12 -27 15 -49 10 -17 -4 -31 -10 -31 -14
0 -43 142 -59 180 -21 42 42 17 88 -55 101 -55 10 -63 15 -48 30 8 8 21 7 46
-2 19 -6 42 -9 52 -5 17 6 17 7 0 26 -14 16 -31 20 -79 20 -40 -1 -65 -6 -73
-15z"/>
<path d="M2548 2079 c55 -11 137 -55 167 -91 13 -15 27 -28 31 -28 5 0 -8 16
-27 36 -43 46 -139 94 -181 93 -31 -1 -30 -2 10 -10z"/>
<path d="M2454 2055 c-10 -8 -14 -14 -9 -14 6 0 19 6 29 14 11 8 15 15 10 15
-6 0 -19 -7 -30 -15z"/>
<path d="M2043 2033 c9 -2 23 -2 30 0 6 3 -1 5 -18 5 -16 0 -22 -2 -12 -5z"/>
<path d="M1758 1983 c7 -3 16 -2 19 1 4 3 -2 6 -13 5 -11 0 -14 -3 -6 -6z"/>
<path d="M2118 1980 c18 -4 39 -16 47 -26 8 -11 15 -14 15 -7 0 18 -41 43 -70
42 -21 -1 -20 -2 8 -9z"/>
<path d="M2232 1973 c9 -10 17 -25 20 -33 3 -8 7 -10 11 -4 7 13 -19 54 -35
54 -6 0 -5 -7 4 -17z"/>
<path d="M1928 1973 c6 -2 18 -2 25 0 6 3 1 5 -13 5 -14 0 -19 -2 -12 -5z"/>
<path d="M2395 1970 c-3 -6 1 -7 9 -4 18 7 21 14 7 14 -6 0 -13 -4 -16 -10z"/>
<path d="M1549 1954 c-11 -14 -10 -18 6 -30 10 -8 26 -14 34 -13 10 0 7 4 -6
9 -25 10 -31 35 -10 43 7 4 8 6 1 6 -6 1 -18 -6 -25 -15z"/>
<path d="M1750 1940 c0 -17 51 -31 99 -27 l46 3 -51 2 c-32 1 -56 8 -64 17
-14 17 -30 20 -30 5z"/>
<path d="M2530 1919 c95 -69 134 -89 172 -89 38 0 118 26 118 39 0 13 -51 81
-62 81 -10 0 0 -17 30 -48 20 -22 14 -39 -19 -51 -68 -24 -110 -11 -206 60
-29 22 -58 39 -64 39 -7 0 7 -14 31 -31z"/>
<path d="M2330 1925 c-10 -13 -9 -15 8 -15 15 0 20 5 16 15 -4 8 -7 15 -9 15
-1 0 -8 -7 -15 -15z"/>
<path d="M1923 1923 c9 -2 25 -2 35 0 9 3 1 5 -18 5 -19 0 -27 -2 -17 -5z"/>
<path d="M2440 1920 c-8 -5 -10 -10 -5 -10 6 0 17 5 25 10 8 5 11 10 5 10 -5
0 -17 -5 -25 -10z"/>
<path d="M3102 1908 c-7 -7 -12 -18 -12 -25 0 -16 26 -17 36 -1 4 7 3 8 -4 4
-7 -4 -12 -1 -12 9 0 12 6 15 21 10 15 -5 19 -4 15 4 -9 14 -29 14 -44 -1z"/>
<path d="M1628 1903 c6 -2 18 -2 25 0 6 3 1 5 -13 5 -14 0 -19 -2 -12 -5z"/>
<path d="M1718 1893 c7 -3 16 -2 19 1 4 3 -2 6 -13 5 -11 0 -14 -3 -6 -6z"/>
<path d="M2109 1888 c-4 -15 -6 -38 -3 -38 2 0 8 9 14 20 7 14 7 20 0 20 -5 0
-10 -1 -11 -2z"/>
<path d="M2358 1878 c-4 -10 1 -27 14 -43 24 -31 34 -101 15 -108 -7 -2 0 -3
15 -1 29 4 61 -22 37 -30 -8 -3 -27 -7 -44 -9 -16 -2 -2 -5 31 -6 52 -1 62 -4
67 -21 3 -11 -4 -31 -16 -47 -11 -16 -22 -29 -23 -31 -1 -2 -17 -6 -36 -8 -66
-10 -95 -25 -143 -76 -35 -36 -41 -45 -20 -31 17 12 39 30 49 42 26 28 36 26
36 -6 0 -37 -38 -90 -78 -109 -35 -16 -86 -13 -125 8 -27 14 -70 113 -65 147
5 34 -16 51 -55 44 -29 -6 -37 13 -16 34 9 9 7 11 -8 7 -22 -6 -41 12 -27 26
5 5 29 12 54 16 l45 7 -25 -22 -25 -22 30 14 c17 8 45 18 63 22 18 3 32 13 32
21 0 8 3 14 8 14 7 0 32 47 32 62 0 4 -11 8 -24 8 -15 0 -26 7 -29 18 -3 11
-7 7 -12 -15 -8 -36 -25 -42 -49 -18 -21 21 -41 19 -59 -7 -12 -19 -23 -23
-65 -22 -28 0 -49 -3 -46 -8 3 -4 14 -8 25 -8 29 0 23 -29 -8 -42 l-28 -11 24
-6 c14 -4 27 -13 29 -20 3 -10 -3 -12 -29 -8 -19 3 -79 11 -134 18 -65 7 -104
16 -112 26 -10 13 -14 13 -35 -2 l-23 -16 29 7 29 7 -5 -52 c-3 -28 -1 -51 3
-51 5 0 9 15 9 34 0 19 4 37 8 40 7 4 136 -12 235 -30 21 -4 37 -12 37 -20 0
-8 6 -14 14 -14 24 0 35 -60 17 -89 -8 -13 -14 -12 -43 3 -23 12 -48 16 -83
14 l-50 -4 57 -2 c48 -2 60 -6 77 -28 11 -14 23 -46 27 -70 5 -38 3 -49 -14
-67 -12 -12 -27 -36 -34 -54 -8 -17 -39 -59 -71 -92 -46 -48 -68 -63 -112 -76
-30 -8 -55 -19 -55 -24 0 -4 -11 -6 -24 -4 -27 6 -45 -14 -22 -23 9 -3 13 -10
10 -15 -3 -5 8 -9 23 -9 32 0 73 -25 73 -44 0 -8 7 -20 17 -27 9 -8 22 -29 30
-46 17 -43 29 -42 44 5 17 53 76 142 94 142 8 0 21 -10 29 -22 27 -44 27 -76
1 -162 -21 -69 -32 -89 -60 -110 -45 -34 -55 -33 -50 7 4 29 4 29 -6 -5 -7
-24 -17 -38 -27 -38 -14 0 -14 -2 -3 -9 8 -5 12 -18 8 -30 -3 -11 1 -25 8 -31
7 -6 15 -23 18 -38 3 -15 13 -36 22 -47 l17 -20 -7 20 c-19 52 -17 63 11 78
16 8 40 27 53 41 30 32 48 34 27 4 -20 -28 -20 -52 -1 -72 13 -12 13 -17 2
-28 -16 -16 -37 -53 -37 -65 0 -4 9 7 20 25 11 18 24 31 29 28 4 -3 18 9 31
27 22 30 22 31 2 13 -32 -28 -27 -6 10 39 28 35 28 37 5 16 l-27 -24 0 22 c0
12 7 24 16 28 8 3 13 12 10 20 -4 9 6 27 24 43 16 15 30 37 30 48 0 31 11 52
26 52 9 0 14 11 14 28 0 28 12 55 24 53 4 -1 19 13 34 31 34 42 40 46 80 54
24 5 38 2 51 -10 18 -17 19 -15 26 36 19 142 46 213 95 248 17 12 37 35 46 52
16 30 16 31 -9 24 -23 -5 -25 -3 -31 44 -4 27 -4 61 0 75 6 23 11 25 63 27 46
1 49 2 16 5 -55 6 -60 15 -31 51 16 17 26 42 26 60 0 17 6 33 13 35 6 3 1 6
-13 7 -29 1 -104 63 -98 81 2 7 -5 24 -16 37 -12 13 -23 35 -26 50 -4 21 -7
23 -12 10z m-280 -133 c31 -10 27 -22 -10 -30 -18 -4 -35 -11 -38 -16 -4 -5
-20 -12 -38 -15 -26 -5 -32 -3 -32 11 0 13 6 16 26 12 18 -3 22 -1 15 6 -7 7
-4 16 10 28 20 17 24 17 67 4z m34 -511 c-2 -9 -11 -28 -20 -40 -19 -26 -47
-33 -38 -9 4 13 2 14 -14 5 -26 -14 -27 11 -2 45 21 30 79 29 74 -1z m82 -23
c-8 -53 -13 -63 -25 -56 -6 4 -8 13 -5 21 7 19 -8 18 -24 -1 -21 -26 -29 -6
-13 33 12 33 19 39 44 39 28 0 29 -2 23 -36z m66 17 c0 7 6 12 13 12 10 0 13
-15 13 -50 -1 -56 -10 -64 -24 -22 -9 26 -9 27 -16 5 -4 -13 -12 -23 -18 -23
-6 0 -8 10 -4 23 3 12 6 36 6 52 1 29 1 29 15 11 8 -11 15 -14 15 -8z m-261
-93 c41 -25 121 -117 121 -138 0 -6 -26 16 -57 49 -32 34 -79 75 -105 93 -27
18 -48 34 -48 36 0 8 48 -14 89 -40z m-48 -22 c13 -17 13 -17 -6 -3 -11 8 -22
16 -24 17 -2 2 0 3 6 3 6 0 17 -8 24 -17z m-264 -59 c-3 -3 -12 -4 -19 -1 -8
3 -5 6 6 6 11 1 17 -2 13 -5z m133 -124 c0 -5 -2 -10 -4 -10 -3 0 -8 5 -11 10
-3 6 -1 10 4 10 6 0 11 -4 11 -10z m170 -150 c0 -11 -5 -19 -12 -17 -6 1 -18
-10 -25 -25 -8 -16 -18 -28 -24 -28 -14 0 -11 16 6 30 8 7 15 17 15 22 0 11
22 37 33 38 4 0 7 -9 7 -20z m-76 -14 c-10 -8 -21 -12 -23 -10 -3 2 4 11 15
18 10 8 21 12 23 10 3 -2 -4 -11 -15 -18z"/>
<path d="M1788 1873 c7 -3 16 -2 19 1 4 3 -2 6 -13 5 -11 0 -14 -3 -6 -6z"/>
<path d="M1858 1863 c12 -2 32 -2 45 0 12 2 2 4 -23 4 -25 0 -35 -2 -22 -4z"/>
<path d="M1953 1863 c15 -2 39 -2 55 0 15 2 2 4 -28 4 -30 0 -43 -2 -27 -4z"/>
<path d="M2158 1863 c6 -2 18 -2 25 0 6 3 1 5 -13 5 -14 0 -19 -2 -12 -5z"/>
<path d="M2972 1863 c9 -2 19 -12 21 -21 3 -12 5 -10 6 6 1 17 -4 22 -21 21
-16 -1 -18 -3 -6 -6z"/>
<path d="M2283 1853 c9 -2 23 -2 30 0 6 3 -1 5 -18 5 -16 0 -22 -2 -12 -5z"/>
<path d="M2150 1841 c0 -6 4 -11 9 -11 5 0 12 -10 14 -22 4 -16 5 -14 4 6 -2
27 -27 52 -27 27z"/>
<path d="M2950 1835 c0 -8 7 -15 15 -15 8 0 15 4 15 9 0 5 -7 11 -15 15 -9 3
-15 0 -15 -9z"/>
<path d="M2255 1803 c-15 -30 -16 -46 -8 -90 7 -41 7 -53 -3 -53 -18 0 -27 17
-12 23 21 6 -12 38 -36 35 -14 -2 -22 -12 -25 -28 -4 -31 -19 -42 -43 -29 -21
12 -23 2 -6 -38 40 -92 81 -107 137 -48 18 19 44 38 57 41 32 8 30 20 -3 32
-27 10 -27 10 -4 11 l24 1 -23 20 c-13 11 -29 20 -37 20 -31 0 -9 18 40 33 28
9 37 14 20 11 -28 -5 -33 -3 -33 14 0 15 -5 19 -20 15 -22 -6 -27 12 -10 37 9
13 11 13 19 0 6 -8 13 -11 17 -7 7 7 -13 37 -26 37 -4 0 -16 -17 -25 -37z
m-18 -185 c-3 -8 -6 -5 -6 6 -1 11 2 17 5 13 3 -3 4 -12 1 -19z m-31 -55 c-10
-10 -19 5 -10 18 6 11 8 11 12 0 2 -7 1 -15 -2 -18z"/>
<path d="M1350 1810 c-8 -5 -12 -12 -9 -15 4 -3 12 1 19 10 14 17 11 19 -10 5z"/>
<path d="M2065 1809 c-4 -6 -5 -12 -2 -15 2 -3 7 2 10 11 7 17 1 20 -8 4z"/>
<path d="M2800 1805 c-7 -8 -9 -22 -6 -31 6 -15 9 -15 29 -1 29 19 35 47 9 47
-11 0 -25 -7 -32 -15z m40 -5 c0 -12 -28 -25 -36 -17 -9 9 6 27 22 27 8 0 14
-5 14 -10z"/>
<path d="M1391 1793 c7 -12 15 -20 18 -17 3 2 -3 12 -13 22 -17 16 -18 16 -5
-5z"/>
<path d="M3032 1788 c-18 -18 -14 -38 8 -38 15 0 20 7 20 25 0 27 -9 32 -28
13z m15 -20 c-3 -8 -6 -5 -6 6 -1 11 2 17 5 13 3 -3 4 -12 1 -19z"/>
<path d="M1256 1781 c-7 -11 10 -68 29 -98 23 -34 14 -38 -35 -13 -49 25 -85
23 -85 -4 0 -21 8 -26 77 -53 51 -19 59 -29 31 -36 -10 -3 -3 -5 15 -6 17 0
32 4 32 9 0 9 -80 51 -122 64 -22 7 -24 36 -3 36 9 0 43 -14 76 -31 62 -31 82
-33 55 -7 -28 29 -56 83 -56 111 0 45 18 35 73 -37 20 -27 37 -45 37 -41 0 18
-42 95 -50 90 -4 -3 -13 2 -20 10 -14 16 -46 20 -54 6z"/>
<path d="M1427 1727 c20 -43 74 -78 120 -76 20 1 22 3 8 6 -63 13 -99 38 -132
89 -7 11 -5 2 4 -19z"/>
<path d="M2850 1745 c-6 -8 -9 -19 -5 -25 9 -14 45 6 45 25 0 19 -24 19 -40 0z
m30 -5 c0 -5 -4 -10 -10 -10 -5 0 -10 5 -10 10 0 6 5 10 10 10 6 0 10 -4 10
-10z"/>
<path d="M2702 1738 c-17 -17 -15 -48 3 -48 14 0 35 29 35 49 0 15 -23 14 -38
-1z"/>
<path d="M3106 1704 c-11 -11 -14 -20 -8 -26 16 -16 47 -5 47 16 0 26 -19 31
-39 10z m34 -15 c0 -5 -7 -9 -15 -9 -15 0 -20 12 -9 23 8 8 24 -1 24 -14z"/>
<path d="M763 1680 c-48 -21 -50 -26 -28 -57 13 -19 14 -27 1 -65 -8 -24 -38
-128 -66 -233 -27 -104 -60 -213 -71 -242 -22 -55 -19 -73 11 -73 41 0 79 48
105 133 19 65 65 263 65 284 0 2 4 2 9 -1 4 -3 14 -34 20 -68 20 -99 89 -302
111 -326 26 -27 37 -21 61 32 19 45 133 491 144 567 8 52 -2 65 -40 55 -34 -9
-60 -64 -80 -167 -9 -46 -21 -108 -26 -136 -11 -53 -24 -68 -33 -35 -2 9 -16
69 -30 132 -41 179 -48 200 -67 210 -25 14 -38 12 -86 -10z"/>
<path d="M365 1669 c-22 -11 -55 -34 -73 -52 -71 -68 -142 -226 -157 -348 -18
-150 59 -269 175 -269 52 0 87 18 131 67 74 82 113 205 113 363 1 147 -25 201
-79 166 -13 -8 -33 -31 -45 -52 l-23 -36 23 -64 c32 -92 26 -206 -16 -284 -38
-72 -75 -88 -109 -47 -30 34 -39 94 -33 211 8 141 60 241 150 287 39 20 71 56
62 71 -9 15 -78 8 -119 -13z"/>
<path d="M2804 1679 c-4 -6 -19 -9 -37 -5 -25 5 -35 0 -64 -31 -30 -31 -34
-42 -30 -70 l6 -33 -62 -1 -62 -2 74 -9 c85 -10 102 -24 98 -78 l-2 -35 -80 2
-80 2 72 -9 c39 -4 76 -10 81 -14 6 -3 6 -23 0 -53 -19 -92 -16 -100 35 -114
53 -14 175 -6 216 15 21 11 31 24 31 39 0 13 5 28 12 35 9 9 8 12 -5 12 -10 0
-17 -8 -17 -20 0 -11 -5 -20 -11 -20 -6 0 -9 -6 -6 -14 13 -32 -132 -58 -209
-37 -41 11 -42 12 -40 52 1 22 8 44 16 49 8 5 14 31 16 67 2 51 2 53 -5 18 -8
-40 -8 -39 -10 17 0 31 2 58 7 61 4 2 1 2 -5 1 -7 -2 -20 8 -30 22 -14 22 -14
27 -2 35 11 7 9 9 -8 9 -32 0 -29 23 7 60 20 20 39 30 59 30 17 0 42 5 56 12
24 11 29 9 56 -20 17 -18 36 -32 43 -32 23 0 29 -33 9 -44 -31 -19 -75 -25
-95 -13 -16 10 -23 8 -39 -12 -19 -23 -20 -23 -39 -6 -31 28 -23 9 10 -25 17
-17 30 -37 30 -45 0 -9 6 -12 15 -9 18 7 20 -7 3 -24 -8 -8 -8 -12 -1 -12 6 0
16 7 23 15 11 13 10 18 -6 30 -16 12 -17 16 -5 24 12 8 13 14 2 37 -11 24 -10
26 3 15 15 -12 49 -8 125 15 22 7 23 5 16 -22 -15 -57 -22 -115 -13 -120 5 -3
6 -28 4 -55 -3 -29 -1 -49 5 -49 5 0 9 8 7 18 -2 14 6 18 41 20 41 3 43 2 30
-14 -13 -16 -12 -16 8 -5 27 14 51 59 46 83 -3 13 -10 15 -36 7 -44 -12 -84
-11 -93 3 -4 7 0 16 8 22 14 9 15 11 2 21 -19 13 -9 42 16 50 11 3 17 12 14
19 -3 9 6 12 33 10 l38 -3 -24 18 c-18 14 -22 24 -18 42 13 50 -54 81 -75 34
-6 -14 -15 -25 -20 -25 -4 0 -25 16 -47 35 -38 35 -83 46 -97 24z m210 -25
c25 -9 21 -61 -5 -69 -34 -11 -54 36 -27 63 14 14 12 14 32 6z m76 -248 c0
-20 -11 -25 -64 -32 -41 -4 -46 -3 -46 15 0 16 8 21 43 24 23 2 48 4 55 5 6 1
12 -4 12 -12z"/>
<path d="M3728 1674 c-40 -17 -46 -32 -27 -62 9 -14 8 -30 -4 -68 -9 -27 -30
-103 -47 -169 -17 -66 -47 -170 -66 -231 -19 -61 -34 -119 -34 -128 0 -29 42
-17 80 23 34 35 40 52 69 172 17 74 34 149 37 167 4 17 9 32 13 32 4 0 22 -57
40 -127 36 -136 74 -238 98 -265 36 -40 59 9 123 262 48 191 80 342 80 376 0
45 -62 24 -94 -33 -3 -6 -20 -78 -37 -160 -17 -81 -32 -150 -34 -151 -6 -7
-36 101 -55 202 -33 168 -58 195 -142 160z"/>
<path d="M3313 1650 c-116 -66 -213 -263 -213 -431 0 -107 39 -187 106 -215
156 -65 296 106 310 381 6 110 -9 191 -38 209 -14 8 -24 4 -54 -24 -52 -50
-54 -63 -26 -149 18 -58 23 -90 19 -137 -8 -102 -64 -204 -114 -204 -79 0 -97
268 -26 408 27 54 83 112 106 112 16 0 67 52 67 68 0 24 -83 13 -137 -18z"/>
<path d="M1439 1652 c5 -10 18 -25 27 -33 11 -9 9 -2 -6 19 -26 35 -36 42 -21
14z"/>
<path d="M4264 1631 c-40 -24 -56 -71 -89 -256 -29 -163 -30 -184 -9 -192 28
-11 73 46 96 122 40 133 86 320 81 332 -7 19 -43 16 -79 -6z"/>
<path d="M2390 1636 c0 -2 7 -7 16 -10 8 -3 12 -2 9 4 -6 10 -25 14 -25 6z"/>
<path d="M1410 1600 c8 -5 20 -10 25 -10 6 0 3 5 -5 10 -8 5 -19 10 -25 10 -5
0 -3 -5 5 -10z"/>
<path d="M1171 1556 c-18 -21 13 -46 57 -46 28 0 33 3 22 10 -8 5 -25 10 -37
10 -29 0 -38 16 -16 29 16 9 16 10 2 11 -9 0 -22 -6 -28 -14z"/>
<path d="M1418 1543 c7 -3 16 -2 19 1 4 3 -2 6 -13 5 -11 0 -14 -3 -6 -6z"/>
<path d="M1646 1514 c-5 -18 -11 -24 -22 -20 -9 3 -28 8 -42 11 -20 4 -17 1
10 -10 31 -14 40 -14 61 -3 22 11 24 15 12 31 -12 16 -13 16 -19 -9z"/>
<path d="M2110 1526 c0 -8 7 -16 15 -20 13 -4 14 -2 5 14 -13 23 -20 26 -20 6z"/>
<path d="M1325 1503 c11 -3 23 -9 26 -14 3 -5 14 -2 25 6 18 13 16 14 -26 14
-25 -1 -36 -4 -25 -6z"/>
<path d="M2235 1501 c-3 -6 -15 -11 -26 -11 -10 0 -19 -4 -19 -10 0 -5 6 -10
13 -10 18 0 53 27 45 35 -3 3 -9 2 -13 -4z"/>
<path d="M3086 1502 c-4 -6 -21 -16 -39 -22 l-32 -10 32 5 c21 3 38 -1 48 -11
17 -17 20 -4 6 30 -5 13 -10 16 -15 8z"/>
<path d="M1435 1480 c-3 -5 -1 -10 4 -10 6 0 11 5 11 10 0 6 -2 10 -4 10 -3 0
-8 -4 -11 -10z"/>
<path d="M2152 1468 c9 -14 26 -24 44 -25 21 -1 23 0 6 4 -12 2 -28 13 -35 24
-6 10 -16 19 -21 19 -4 0 -2 -10 6 -22z"/>
<path d="M1305 1450 c-16 -16 -26 -32 -23 -35 3 -3 17 10 32 30 33 43 29 45
-9 5z"/>
<path d="M1355 1410 c-37 -39 -23 -39 18 0 18 16 27 30 21 30 -5 0 -23 -13
-39 -30z"/>
<path d="M2878 1384 c-2 -25 0 -51 4 -57 4 -7 8 14 8 46 0 68 -7 75 -12 11z"/>
<path d="M2919 1419 c-2 -32 3 -75 11 -82 4 -5 5 13 3 40 -6 48 -12 68 -14 42z"/>
<path d="M2822 1400 c-14 -23 -15 -30 -3 -30 8 0 24 41 18 47 -2 1 -8 -7 -15
-17z"/>
<path d="M1271 1382 c-1 -26 25 -40 42 -23 9 9 8 11 -5 6 -13 -5 -21 0 -27 16
l-10 24 0 -23z"/>
<path d="M2770 1368 c0 -25 3 -29 10 -18 13 20 13 50 0 50 -5 0 -10 -15 -10
-32z"/>
<path d="M4163 1138 c-31 -35 -43 -63 -43 -103 0 -43 20 -54 55 -31 34 23 57
70 53 114 -4 46 -33 55 -65 20z"/>
<path d="M1528 1103 c7 -3 16 -2 19 1 4 3 -2 6 -13 5 -11 0 -14 -3 -6 -6z"/>
<path d="M1403 1055 c-3 -9 -3 -18 -1 -21 3 -3 8 4 11 16 6 23 -1 27 -10 5z"/>
<path d="M1587 1015 c-48 -66 -47 -75 4 -20 22 24 39 50 37 57 -3 7 -21 -9
-41 -37z"/>
<path d="M2213 995 c-3 -9 -3 -19 1 -22 8 -9 37 18 30 28 -8 14 -24 11 -31 -6z"/>
<path d="M1365 974 c-18 -28 -13 -98 8 -111 7 -4 8 0 3 13 -17 44 -17 72 -1
98 10 14 15 26 12 26 -2 0 -12 -12 -22 -26z"/>
<path d="M2277 984 c-14 -14 -7 -35 11 -32 9 2 17 10 17 17 0 16 -18 25 -28
15z"/>
<path d="M2217 943 c-13 -12 -7 -23 13 -23 11 0 20 7 20 15 0 15 -21 21 -33 8z"/>
<path d="M2327 920 c-8 -19 -30 -51 -49 -70 -74 -78 -110 -141 -70 -125 9 4
60 8 112 10 124 3 140 8 140 46 0 17 -4 28 -9 25 -5 -3 -12 5 -15 18 -3 13
-22 38 -41 55 -20 17 -39 41 -44 53 -8 22 -9 21 -24 -12z"/>
<path d="M2134 926 c-16 -41 14 -75 53 -61 21 7 3 35 -20 32 -17 -2 -21 3 -20
21 3 25 -5 30 -13 8z"/>
<path d="M1860 866 c-15 -42 -11 -55 6 -17 8 19 12 36 9 39 -2 3 -9 -7 -15
-22z"/>
<path d="M2227 873 c-13 -12 -7 -23 13 -23 11 0 20 7 20 15 0 15 -21 21 -33 8z"/>
<path d="M2112 845 c0 -16 2 -22 5 -12 2 9 2 23 0 30 -3 6 -5 -1 -5 -18z"/>
<path d="M1381 834 c-1 -15 12 -30 40 -48 22 -15 42 -26 44 -24 2 2 -13 15
-35 28 -22 13 -41 33 -43 45 -4 19 -4 19 -6 -1z"/>
<path d="M1542 830 c0 -14 2 -19 5 -12 2 6 2 18 0 25 -3 6 -5 1 -5 -13z"/>
<path d="M2142 830 c0 -14 2 -19 5 -12 2 6 2 18 0 25 -3 6 -5 1 -5 -13z"/>
<path d="M2174 809 c-7 -12 15 -31 28 -23 4 3 8 12 8 20 0 17 -26 19 -36 3z"/>
<path d="M2121 768 c-10 -30 -9 -31 4 -14 8 11 15 26 15 33 0 22 -8 14 -19
-19z"/>
<path d="M1537 784 c-11 -12 69 -94 92 -94 10 1 5 7 -11 15 -14 8 -36 31 -48
50 -23 38 -24 38 -33 29z"/>
<path d="M4228 746 c-82 -29 -125 -79 -97 -112 10 -12 25 -15 66 -12 90 8 166
89 117 125 -22 16 -39 16 -86 -1z"/>
<path d="M1095 725 c-43 -23 -85 -66 -85 -87 0 -43 79 -46 151 -6 41 23 63 55
57 84 -4 26 -81 31 -123 9z"/>
<path d="M2060 685 c-13 -14 -19 -25 -13 -25 6 0 18 11 27 25 9 14 15 25 13
25 -2 0 -14 -11 -27 -25z"/>
<path d="M1668 683 c12 -2 30 -2 40 0 9 3 -1 5 -23 4 -22 0 -30 -2 -17 -4z"/>
<path d="M3950 666 c-19 -7 -82 -35 -140 -62 -97 -44 -111 -48 -185 -48 -44 0
-114 8 -156 18 -88 22 -135 17 -178 -20 -79 -66 -34 -203 72 -219 26 -4 90 2
167 15 150 26 193 23 327 -26 104 -38 143 -39 190 -9 34 23 74 114 80 184 13
138 -63 209 -177 167z m-521 -155 c17 -11 19 -67 3 -83 -14 -14 -58 -13 -77 2
-18 15 -20 61 -3 78 14 14 57 16 77 3z m80 -13 l14 -22 8 23 c9 23 35 25 33 3
-1 -7 -2 -30 -2 -52 -2 -44 -14 -50 -39 -20 -21 24 -33 26 -33 5 0 -8 -6 -15
-14 -15 -11 0 -15 12 -14 43 0 23 2 45 5 50 8 14 28 7 42 -15z m336 -12 c19
-28 9 -58 -25 -76 -25 -13 -66 5 -74 33 -15 58 67 93 99 43z m76 -2 l14 -26 5
23 c10 40 35 29 38 -17 5 -62 -28 -79 -56 -29 -10 19 -11 19 -21 -8 -16 -41
-31 -24 -31 34 0 41 3 49 18 49 10 0 25 -12 33 -26z m-236 -34 c4 -6 -7 -10
-24 -10 -17 0 -31 5 -31 10 0 6 11 10 24 10 14 0 28 -4 31 -10z"/>
<path d="M3374 486 c-9 -22 2 -46 21 -46 12 0 15 8 13 27 -3 30 -25 42 -34 19z"/>
<path d="M3784 476 c-8 -22 3 -49 19 -43 6 2 12 14 12 27 0 27 -22 39 -31 16z"/>
<path d="M842 650 c-30 -11 -95 -38 -145 -61 -110 -51 -184 -59 -301 -35 -141
29 -210 17 -241 -44 -30 -57 -13 -127 41 -169 33 -26 127 -28 219 -6 104 25
207 19 305 -17 113 -42 176 -47 213 -18 92 72 115 285 37 341 -38 28 -70 30
-128 9z m-531 -150 c30 -17 26 -77 -6 -92 -41 -18 -75 3 -75 46 0 48 37 69 81
46z m92 -22 l16 -23 0 23 c1 14 7 22 19 22 14 0 16 -8 14 -50 -4 -58 -20 -64
-51 -22 l-20 27 -1 -28 c0 -50 -25 -25 -26 26 -1 38 2 47 16 47 10 0 25 -10
33 -22z m321 9 c21 -16 24 -60 6 -82 -19 -23 -66 -19 -84 7 -21 30 -20 44 4
68 23 23 49 26 74 7z m81 -13 c24 -26 25 -26 25 -5 0 12 6 21 15 21 11 0 15
-12 15 -50 0 -55 -19 -68 -42 -30 -7 11 -16 20 -20 20 -5 0 -8 -9 -8 -20 0
-11 -7 -20 -15 -20 -11 0 -15 12 -15 48 0 43 5 62 17 62 2 0 15 -12 28 -26z
m-230 -44 c-3 -5 -17 -10 -30 -10 -13 0 -27 5 -30 10 -4 6 8 10 30 10 22 0 34
-4 30 -10z"/>
<path d="M273 483 c-7 -3 -13 -16 -13 -29 0 -17 6 -24 20 -24 15 0 20 7 20 24
0 27 -8 36 -27 29z"/>
<path d="M677 473 c-4 -3 -7 -17 -7 -30 0 -16 6 -23 20 -23 20 0 25 15 14 44
-7 17 -16 20 -27 9z"/>
<path d="M2080 600 c8 -5 20 -10 25 -10 6 0 3 5 -5 10 -8 5 -19 10 -25 10 -5
0 -3 -5 5 -10z"/>
<path d="M4193 586 c-24 -20 -25 -26 -14 -40 19 -23 99 -21 130 3 17 13 22 23
16 39 -10 33 -93 31 -132 -2z"/>
<path d="M1102 585 c-69 -30 -44 -81 37 -72 54 6 91 38 75 65 -14 22 -70 26
-112 7z"/>
<path d="M2065 560 c11 -5 27 -9 35 -9 13 -1 13 0 0 9 -8 5 -24 9 -35 9 l-20
0 20 -9z"/>
<path d="M2260 562 c0 -6 12 -13 28 -15 22 -3 20 -4 -10 -6 -42 -1 -42 0 -28
-36 8 -22 7 -27 -15 -37 -14 -6 -26 -17 -26 -25 -1 -7 -2 -19 -3 -25 -1 -13
17 -17 82 -20 23 -2 31 -6 27 -16 -3 -7 -5 -18 -5 -23 0 -5 -11 -7 -24 -3 -18
4 -27 1 -35 -14 -15 -28 -14 -45 2 -35 6 4 19 6 28 5 18 -3 54 33 54 55 0 18
31 41 41 30 4 -3 1 -14 -7 -24 -12 -15 -12 -16 3 -10 9 3 18 2 20 -2 5 -14 78
0 78 15 0 8 4 14 10 14 5 0 7 -7 4 -15 -4 -8 -1 -15 5 -15 6 0 11 4 11 9 0 5
3 16 6 25 5 13 -3 16 -46 16 -44 0 -53 3 -57 20 -4 14 -11 19 -23 15 -10 -3
-22 0 -26 6 -5 8 -2 10 8 6 11 -4 14 -1 11 12 -3 10 2 21 10 24 15 6 12 57 -3
57 -5 0 -6 -9 -3 -20 5 -18 3 -19 -28 -8 -33 12 -34 12 -9 18 25 6 25 7 -5 12
-16 4 -40 9 -52 13 -14 5 -23 3 -23 -3z"/>
<path d="M2025 530 c3 -5 8 -10 11 -10 2 0 4 5 4 10 0 6 -5 10 -11 10 -5 0 -7
-4 -4 -10z"/>
<path d="M1929 480 c11 -30 33 -65 48 -77 36 -30 88 -31 103 -2 10 19 10 20
-9 10 -11 -6 -29 -11 -39 -11 -25 0 -82 52 -82 74 0 9 -9 27 -21 39 l-21 22
21 -55z"/>
<path d="M2050 520 c0 -5 4 -10 9 -10 5 0 18 -3 28 -6 16 -6 16 -5 -2 9 -23
19 -35 21 -35 7z"/>
<path d="M2141 514 c0 -11 3 -14 6 -6 3 7 2 16 -1 19 -3 4 -6 -2 -5 -13z"/>
<path d="M4202 484 c-62 -43 16 -97 93 -62 30 14 34 53 6 68 -28 15 -73 12
-99 -6z"/>
<path d="M1118 482 c-30 -4 -59 -37 -51 -57 8 -23 58 -35 98 -24 83 23 42 92
-47 81z"/>
<path d="M2025 480 c27 -12 43 -12 25 0 -8 5 -22 9 -30 9 -10 0 -8 -3 5 -9z"/>
<path d="M2131 474 c0 -11 3 -14 6 -6 3 7 2 16 -1 19 -3 4 -6 -2 -5 -13z"/>
<path d="M2667 407 c44 -17 47 -22 34 -55 -9 -21 -25 -33 -59 -45 -36 -13 -39
-15 -13 -11 19 4 49 13 67 20 27 12 34 20 34 43 0 33 -35 61 -72 60 -19 0 -18
-2 9 -12z"/>
<path d="M4152 378 c-33 -33 8 -70 73 -66 59 4 79 26 51 57 -22 24 -103 30
-124 9z"/>
<path d="M1048 369 c-22 -12 -23 -42 -3 -59 8 -6 31 -14 52 -17 45 -6 91 23
80 51 -12 31 -92 47 -129 25z"/>
<path d="M2157 373 c-4 -3 -7 -25 -7 -48 0 -23 -7 -50 -15 -61 -23 -31 -18
-34 48 -32 46 1 52 2 22 5 -48 5 -72 23 -30 23 15 0 25 3 21 8 -4 4 -13 7 -19
7 -8 0 -11 17 -9 53 4 51 2 59 -11 45z"/>
<path d="M2700 295 c-11 -13 -10 -14 4 -9 9 3 16 10 16 15 0 13 -6 11 -20 -6z"/>
<path d="M2288 293 c7 -3 16 -2 19 1 4 3 -2 6 -13 5 -11 0 -14 -3 -6 -6z"/>
<path d="M2348 293 c6 -2 18 -2 25 0 6 3 1 5 -13 5 -14 0 -19 -2 -12 -5z"/>
<path d="M4103 283 c-9 -23 32 -53 73 -53 42 0 54 22 29 50 -23 26 -93 28
-102 3z"/>
<path d="M998 284 c-27 -27 26 -79 74 -72 32 5 46 34 27 54 -18 17 -90 30
-101 18z"/>
<path d="M2530 279 c-11 -7 -7 -9 18 -5 19 2 36 7 40 10 10 10 -42 6 -58 -5z"/>
<path d="M2278 243 c6 -2 18 -2 25 0 6 3 1 5 -13 5 -14 0 -19 -2 -12 -5z"/>
<path d="M2377 243 c18 -2 50 -2 70 0 21 2 7 4 -32 4 -38 0 -55 -2 -38 -4z"/>
<path d="M2508 243 c12 -2 32 -2 45 0 12 2 2 4 -23 4 -25 0 -35 -2 -22 -4z"/>
</g>
</svg>
